# xmcd
#
# Track frame offsets:
#	150
#	12343
#	18700
#	32551
#	39886
#	53492
#	69326
#	82899
#	100729
#	110522
#	117769
#	124543
#	134826
#	145744
#	160177
#	172231
#	181014
#	213144
#	224364
#
# Disc length: 3353 seconds
#
# Revision: 22
# Processed by: cddbd v1.5.2PL0 Copyright (c) Steve Scherf et al.
# Submitted via: EasyCDDAExtractor 10.0.2.1
#
DISCID=fa0d1713
DTITLE=Johnny Cash - At Folsom Prison 
DYEAR=1968
DGENRE=Country
TTITLE0=Folsom Prison Blues
TTITLE1=Busted
TTITLE2=Dark As The Dungeon
TTITLE3=I Still Miss Someone
TTITLE4=Cocaine Blues
TTITLE5=25 Minutes To Go
TTITLE6=Orange Blossom Special
TTITLE7=The Long Black Veil
TTITLE8=Send A Picture Of Mother
TTITLE9=The Wall
TTITLE10=Dirty Old Egg-Suckin' Dog
TTITLE11=Flushed From The Bathroom Of Your Heart
TTITLE12=Joe Bean [bonus track]
TTITLE13=Jackson [with June Carter]
TTITLE14=Give My Love To Rose [with June Carter]
TTITLE15=I Got Stripes
TTITLE16=The Legend Of John Henry's Hammer [bonus track]
TTITLE17=Green, Green Grass Of Home
TTITLE18=Greystone Chapel
EXTD=YEAR: 1968 ID3G: 2
EXTT0=
EXTT1=
EXTT2=
EXTT3=
EXTT4=
EXTT5=
EXTT6=
EXTT7=
EXTT8=
EXTT9=
EXTT10=
EXTT11=
EXTT12=
EXTT13=
EXTT14=
EXTT15=
EXTT16=
EXTT17=
EXTT18=
PLAYORDER=
